{"asset":{"generator":"glTF-Transform v3.4.0","version":"2.0","copyright":"finalcharacter2"},"accessors":[{"type":"SCALAR","componentType":5123,"count":59250,"normalized":false,"byteOffset":0,"bufferView":0},{"type":"VEC3","componentType":5122,"count":13344,"max":[16325,25247,21458],"min":[-16325,-25247,-20318],"normalized":true,"byteOffset":0,"bufferView":1},{"type":"VEC3","componentType":5120,"count":13344,"normalized":true,"byteOffset":0,"bufferView":2},{"type":"VEC2","componentType":5123,"count":13344,"normalized":true,"byteOffset":53376,"bufferView":2},{"type":"VEC4","componentType":5121,"count":13344,"normalized":true,"byteOffset":106752,"bufferView":2},{"type":"VEC3","componentType":5122,"count":13344,"max":[0,0,0],"min":[-236,-852,-224],"normalized":true,"byteOffset":106752,"bufferView":1},{"type":"VEC3","componentType":5120,"count":13344,"normalized":true,"byteOffset":160128,"bufferView":2},{"type":"VEC3","componentType":5122,"count":13344,"max":[236,0,0],"min":[0,-820,-224],"normalized":true,"byteOffset":213504,"bufferView":1},{"type":"VEC3","componentType":5120,"count":13344,"normalized":true,"byteOffset":213504,"bufferView":2},{"type":"VEC3","componentType":5122,"count":13344,"max":[360,3676,0],"min":[-360,0,-428],"normalized":true,"byteOffset":320256,"bufferView":1},{"type":"VEC3","componentType":5120,"count":13344,"normalized":true,"byteOffset":266880,"bufferView":2},{"type":"VEC3","componentType":5122,"count":13344,"max":[584,4096,1056],"min":[-156,0,-188],"normalized":true,"byteOffset":427008,"bufferView":1},{"type":"VEC3","componentType":5120,"count":13344,"normalized":true,"byteOffset":320256,"bufferView":2},{"type":"VEC3","componentType":5122,"count":13344,"max":[156,4096,1056],"min":[-584,0,-188],"normalized":true,"byteOffset":533760,"bufferView":1},{"type":"VEC3","componentType":5120,"count":13344,"normalized":true,"byteOffset":373632,"bufferView":2},{"type":"VEC3","componentType":5122,"count":13344,"max":[404,1176,32],"min":[-16,-8,-840],"normalized":true,"byteOffset":640512,"bufferView":1},{"type":"VEC3","componentType":5120,"count":13344,"normalized":true,"byteOffset":427008,"bufferView":2},{"type":"VEC3","componentType":5122,"count":13344,"max":[16,1176,32],"min":[-404,-8,-840],"normalized":true,"byteOffset":747264,"bufferView":1},{"type":"VEC3","componentType":5120,"count":13344,"normalized":true,"byteOffset":480384,"bufferView":2},{"type":"VEC3","componentType":5122,"count":13344,"max":[3588,964,564],"min":[-3368,-1252,-5368],"normalized":true,"byteOffset":854016,"bufferView":1},{"type":"VEC3","componentType":5120,"count":13344,"normalized":true,"byteOffset":533760,"bufferView":2},{"type":"VEC3","componentType":5122,"count":13344,"max":[232,0,920],"min":[-404,-3624,-136],"normalized":true,"byteOffset":960768,"bufferView":1},{"type":"VEC3","componentType":5120,"count":13344,"normalized":true,"byteOffset":587136,"bufferView":2},{"type":"VEC3","componentType":5122,"count":13344,"max":[404,0,920],"min":[-232,-3624,-136],"normalized":true,"byteOffset":1067520,"bufferView":1},{"type":"VEC3","componentType":5120,"count":13344,"normalized":true,"byteOffset":640512,"bufferView":2},{"type":"VEC3","componentType":5122,"count":13344,"max":[0,1184,1176],"min":[0,-1172,-1180],"normalized":true,"byteOffset":1174272,"bufferView":1},{"type":"VEC3","componentType":5120,"count":13344,"normalized":true,"byteOffset":693888,"bufferView":2},{"type":"VEC3","componentType":5122,"count":13344,"max":[0,1184,1176],"min":[0,-1172,-1180],"normalized":true,"byteOffset":1281024,"bufferView":1},{"type":"VEC3","componentType":5120,"count":13344,"normalized":true,"byteOffset":747264,"bufferView":2},{"type":"VEC3","componentType":5122,"count":13344,"max":[1424,0,1164],"min":[-952,0,-1168],"normalized":true,"byteOffset":1387776,"bufferView":1},{"type":"VEC3","componentType":5120,"count":13344,"normalized":true,"byteOffset":800640,"bufferView":2},{"type":"VEC3","componentType":5122,"count":13344,"max":[952,0,1164],"min":[-1420,0,-1168],"normalized":true,"byteOffset":1494528,"bufferView":1},{"type":"VEC3","componentType":5120,"count":13344,"normalized":true,"byteOffset":854016,"bufferView":2},{"type":"VEC3","componentType":5122,"count":13344,"max":[1724,0,1740],"min":[-1756,0,-1752],"normalized":true,"byteOffset":1601280,"bufferView":1},{"type":"VEC3","componentType":5120,"count":13344,"normalized":true,"byteOffset":907392,"bufferView":2},{"type":"VEC3","componentType":5122,"count":13344,"max":[1040,0,1016],"min":[-1004,0,-1028],"normalized":true,"byteOffset":1708032,"bufferView":1},{"type":"VEC3","componentType":5120,"count":13344,"normalized":true,"byteOffset":960768,"bufferView":2},{"type":"VEC3","componentType":5122,"count":13344,"max":[0,1184,1176],"min":[0,-1184,-1180],"normalized":true,"byteOffset":1814784,"bufferView":1},{"type":"VEC3","componentType":5120,"count":13344,"normalized":true,"byteOffset":1014144,"bufferView":2},{"type":"VEC3","componentType":5122,"count":13344,"max":[0,1184,1176],"min":[0,-1184,-1180],"normalized":true,"byteOffset":1921536,"bufferView":1},{"type":"VEC3","componentType":5120,"count":13344,"normalized":true,"byteOffset":1067520,"bufferView":2},{"type":"VEC3","componentType":5122,"count":13344,"max":[132,924,16],"min":[-280,0,-1056],"normalized":true,"byteOffset":2028288,"bufferView":1},{"type":"VEC3","componentType":5120,"count":13344,"normalized":true,"byteOffset":1120896,"bufferView":2},{"type":"VEC3","componentType":5122,"count":13344,"max":[280,924,16],"min":[-132,0,-1056],"normalized":true,"byteOffset":2135040,"bufferView":1},{"type":"VEC3","componentType":5120,"count":13344,"normalized":true,"byteOffset":1174272,"bufferView":2},{"type":"VEC3","componentType":5122,"count":13344,"max":[132,1008,88],"min":[-88,0,-108],"normalized":true,"byteOffset":2241792,"bufferView":1},{"type":"VEC3","componentType":5120,"count":13344,"normalized":true,"byteOffset":1227648,"bufferView":2},{"type":"VEC3","componentType":5122,"count":13344,"max":[88,1008,88],"min":[-132,0,-108],"normalized":true,"byteOffset":2348544,"bufferView":1},{"type":"VEC3","componentType":5120,"count":13344,"normalized":true,"byteOffset":1281024,"bufferView":2},{"type":"VEC3","componentType":5122,"count":13344,"max":[15977,568,8056],"min":[-11437,-3140,-13033],"normalized":true,"byteOffset":2455296,"bufferView":1},{"type":"VEC3","componentType":5120,"count":13344,"normalized":true,"byteOffset":1334400,"bufferView":2},{"type":"VEC3","componentType":5122,"count":13344,"max":[12417,5488,276],"min":[-2988,-5764,-1100],"normalized":true,"byteOffset":2562048,"bufferView":1},{"type":"VEC3","componentType":5120,"count":13344,"normalized":true,"byteOffset":1387776,"bufferView":2},{"type":"VEC3","componentType":5122,"count":13344,"max":[12417,5488,276],"min":[-2988,-5764,-1100],"normalized":true,"byteOffset":2668800,"bufferView":1},{"type":"VEC3","componentType":5120,"count":13344,"normalized":true,"byteOffset":1441152,"bufferView":2},{"type":"VEC3","componentType":5122,"count":13344,"max":[11437,568,8056],"min":[-15977,-3588,-13033],"normalized":true,"byteOffset":2775552,"bufferView":1},{"type":"VEC3","componentType":5120,"count":13344,"normalized":true,"byteOffset":1494528,"bufferView":2},{"type":"VEC3","componentType":5122,"count":13344,"max":[932,10889,16097],"min":[-904,-11813,-5084],"normalized":true,"byteOffset":2882304,"bufferView":1},{"type":"VEC3","componentType":5120,"count":13344,"normalized":true,"byteOffset":1547904,"bufferView":2},{"type":"VEC3","componentType":5122,"count":13344,"max":[612,9537,8076],"min":[-664,-10629,-16670],"normalized":true,"byteOffset":2989056,"bufferView":1},{"type":"VEC3","componentType":5120,"count":13344,"normalized":true,"byteOffset":1601280,"bufferView":2},{"type":"VEC3","componentType":5122,"count":13344,"max":[0,0,0],"min":[0,0,-1980],"normalized":true,"byteOffset":3095808,"bufferView":1},{"type":"VEC3","componentType":5120,"count":13344,"normalized":true,"byteOffset":1654656,"bufferView":2},{"type":"VEC3","componentType":5122,"count":13344,"max":[3196,880,912],"min":[0,-380,-296],"normalized":true,"byteOffset":3202560,"bufferView":1},{"type":"VEC3","componentType":5120,"count":13344,"normalized":true,"byteOffset":1708032,"bufferView":2},{"type":"VEC3","componentType":5122,"count":13344,"max":[0,880,912],"min":[-3196,-380,-296],"normalized":true,"byteOffset":3309312,"bufferView":1},{"type":"VEC3","componentType":5120,"count":13344,"normalized":true,"byteOffset":1761408,"bufferView":2},{"type":"VEC3","componentType":5122,"count":13344,"max":[564,1868,0],"min":[-96,-188,-592],"normalized":true,"byteOffset":3416064,"bufferView":1},{"type":"VEC3","componentType":5120,"count":13344,"normalized":true,"byteOffset":1814784,"bufferView":2},{"type":"VEC3","componentType":5122,"count":13344,"max":[0,0,0],"min":[0,-636,-24],"normalized":true,"byteOffset":3522816,"bufferView":1},{"type":"VEC3","componentType":5120,"count":13344,"normalized":true,"byteOffset":1868160,"bufferView":2},{"type":"VEC3","componentType":5122,"count":13344,"max":[2132,2516,1280],"min":[-120,-72,-120],"normalized":true,"byteOffset":3629568,"bufferView":1},{"type":"VEC3","componentType":5120,"count":13344,"normalized":true,"byteOffset":1921536,"bufferView":2},{"type":"VEC3","componentType":5122,"count":13344,"max":[124,932,392],"min":[-120,-420,-164],"normalized":true,"byteOffset":3736320,"bufferView":1},{"type":"VEC3","componentType":5120,"count":13344,"normalized":true,"byteOffset":1974912,"bufferView":2},{"type":"VEC3","componentType":5122,"count":13344,"max":[128,1524,580],"min":[-128,-196,-464],"normalized":true,"byteOffset":3843072,"bufferView":1},{"type":"VEC3","componentType":5120,"count":13344,"normalized":true,"byteOffset":2028288,"bufferView":2},{"type":"VEC3","componentType":5122,"count":13344,"max":[352,204,2280],"min":[-352,-1520,-296],"normalized":true,"byteOffset":3949824,"bufferView":1},{"type":"VEC3","componentType":5120,"count":13344,"normalized":true,"byteOffset":2081664,"bufferView":2},{"type":"VEC3","componentType":5122,"count":13344,"max":[664,2616,2016],"min":[-664,-112,-4],"normalized":true,"byteOffset":4056576,"bufferView":1},{"type":"VEC3","componentType":5120,"count":13344,"normalized":true,"byteOffset":2135040,"bufferView":2},{"type":"VEC3","componentType":5122,"count":13344,"max":[1964,788,192],"min":[-244,-68,-116],"normalized":true,"byteOffset":4163328,"bufferView":1},{"type":"VEC3","componentType":5120,"count":13344,"normalized":true,"byteOffset":2188416,"bufferView":2},{"type":"VEC3","componentType":5122,"count":13344,"max":[584,1496,144],"min":[-172,-44,-132],"normalized":true,"byteOffset":4270080,"bufferView":1},{"type":"VEC3","componentType":5120,"count":13344,"normalized":true,"byteOffset":2241792,"bufferView":2},{"type":"VEC3","componentType":5122,"count":13344,"max":[260,0,204],"min":[-152,-1336,-80],"normalized":true,"byteOffset":4376832,"bufferView":1},{"type":"VEC3","componentType":5120,"count":13344,"normalized":true,"byteOffset":2295168,"bufferView":2},{"type":"VEC3","componentType":5122,"count":13344,"max":[1008,3380,0],"min":[-436,0,-340],"normalized":true,"byteOffset":4483584,"bufferView":1},{"type":"VEC3","componentType":5120,"count":13344,"normalized":true,"byteOffset":2348544,"bufferView":2},{"type":"VEC3","componentType":5122,"count":13344,"max":[4508,620,1472],"min":[-472,0,-2932],"normalized":true,"byteOffset":4590336,"bufferView":1},{"type":"VEC3","componentType":5120,"count":13344,"normalized":true,"byteOffset":2401920,"bufferView":2},{"type":"VEC3","componentType":5122,"count":13344,"max":[1588,1748,80],"min":[-1548,-280,-6228],"normalized":true,"byteOffset":4697088,"bufferView":1},{"type":"VEC3","componentType":5120,"count":13344,"normalized":true,"byteOffset":2455296,"bufferView":2},{"type":"VEC3","componentType":5122,"count":13344,"max":[572,1748,324],"min":[-560,-1744,-1092],"normalized":true,"byteOffset":4803840,"bufferView":1},{"type":"VEC3","componentType":5120,"count":13344,"normalized":true,"byteOffset":2508672,"bufferView":2},{"type":"VEC3","componentType":5122,"count":13344,"max":[1012,340,6064],"min":[-940,-7096,-1476],"normalized":true,"byteOffset":4910592,"bufferView":1},{"type":"VEC3","componentType":5120,"count":13344,"normalized":true,"byteOffset":2562048,"bufferView":2},{"type":"VEC3","componentType":5122,"count":13344,"max":[0,1792,0],"min":[-300,-968,-516],"normalized":true,"byteOffset":5017344,"bufferView":1},{"type":"VEC3","componentType":5120,"count":13344,"normalized":true,"byteOffset":2615424,"bufferView":2},{"type":"VEC3","componentType":5122,"count":13344,"max":[300,1792,0],"min":[0,-968,-516],"normalized":true,"byteOffset":5124096,"bufferView":1},{"type":"VEC3","componentType":5120,"count":13344,"normalized":true,"byteOffset":2668800,"bufferView":2},{"type":"VEC3","componentType":5122,"count":13344,"max":[96,1868,0],"min":[-564,-188,-592],"normalized":true,"byteOffset":5230848,"bufferView":1},{"type":"VEC3","componentType":5120,"count":13344,"normalized":true,"byteOffset":2722176,"bufferView":2},{"type":"VEC3","componentType":5122,"count":13344,"max":[0,0,0],"min":[0,-636,-24],"normalized":true,"byteOffset":5337600,"bufferView":1},{"type":"VEC3","componentType":5120,"count":13344,"normalized":true,"byteOffset":2775552,"bufferView":2},{"type":"VEC3","componentType":5122,"count":13344,"max":[120,2516,1280],"min":[-2132,-72,-120],"normalized":true,"byteOffset":5444352,"bufferView":1},{"type":"VEC3","componentType":5120,"count":13344,"normalized":true,"byteOffset":2828928,"bufferView":2},{"type":"VEC3","componentType":5122,"count":13344,"max":[244,788,192],"min":[-1964,-68,-116],"normalized":true,"byteOffset":5551104,"bufferView":1},{"type":"VEC3","componentType":5120,"count":13344,"normalized":true,"byteOffset":2882304,"bufferView":2},{"type":"VEC3","componentType":5122,"count":13344,"max":[172,1496,144],"min":[-584,-44,-132],"normalized":true,"byteOffset":5657856,"bufferView":1},{"type":"VEC3","componentType":5120,"count":13344,"normalized":true,"byteOffset":2935680,"bufferView":2},{"type":"VEC3","componentType":5122,"count":13344,"max":[152,0,204],"min":[-260,-1336,-80],"normalized":true,"byteOffset":5764608,"bufferView":1},{"type":"VEC3","componentType":5120,"count":13344,"normalized":true,"byteOffset":2989056,"bufferView":2},{"type":"VEC3","componentType":5122,"count":13344,"max":[436,3380,0],"min":[-1008,0,-340],"normalized":true,"byteOffset":5871360,"bufferView":1},{"type":"VEC3","componentType":5120,"count":13344,"normalized":true,"byteOffset":3042432,"bufferView":2},{"type":"VEC3","componentType":5122,"count":13344,"max":[472,620,1472],"min":[-4508,0,-2932],"normalized":true,"byteOffset":5978112,"bufferView":1},{"type":"VEC3","componentType":5120,"count":13344,"normalized":true,"byteOffset":3095808,"bufferView":2},{"type":"VEC3","componentType":5122,"count":13344,"max":[0,0,0],"min":[0,0,0],"normalized":true,"byteOffset":6084864,"bufferView":1},{"type":"VEC3","componentType":5120,"count":13344,"normalized":true,"byteOffset":3149184,"bufferView":2},{"type":"VEC3","componentType":5122,"count":13344,"max":[688,1764,0],"min":[-684,-1344,-7248],"normalized":true,"byteOffset":6191616,"bufferView":1},{"type":"VEC3","componentType":5120,"count":13344,"normalized":true,"byteOffset":3202560,"bufferView":2}],"bufferViews":[{"buffer":1,"byteOffset":0,"byteLength":118500,"target":34963,"extensions":{"EXT_meshopt_compression":{"buffer":0,"byteOffset":0,"byteLength":23048,"mode":"TRIANGLES","byteStride":2,"count":59250}}},{"buffer":1,"byteOffset":118500,"byteLength":6298368,"target":34962,"byteStride":8,"extensions":{"EXT_meshopt_compression":{"buffer":0,"byteOffset":23048,"byteLength":558697,"mode":"ATTRIBUTES","byteStride":8,"count":787296}}},{"buffer":1,"byteOffset":6416868,"byteLength":3255936,"target":34962,"byteStride":4,"extensions":{"EXT_meshopt_compression":{"buffer":0,"byteOffset":581748,"byteLength":371155,"mode":"ATTRIBUTES","byteStride":4,"count":813984}}}],"samplers":[{"magFilter":9729,"minFilter":9987,"wrapS":10497,"wrapT":10497}],"textures":[{"source":2,"sampler":0},{"source":1,"sampler":0},{"source":3,"sampler":0},{"source":0,"sampler":0}],"images":[{"name":"Image","mimeType":"image/png","uri":"specularColor_1.png"},{"name":"Normal","mimeType":"image/jpeg","uri":"normal_1.jpg"},{"name":"Base 3-Opacity","mimeType":"image/png","uri":"baseColor_1.png"},{"name":"Roughness","mimeType":"image/png","uri":"metallicRoughness_1.png"}],"buffers":[{"uri":"finalcharacterNoTangents.bin","byteLength":952904},{"byteLength":9672804,"extensions":{"EXT_meshopt_compression":{"fallback":true}}}],"materials":[{"name":"Material.001","pbrMetallicRoughness":{"metallicFactor":0,"baseColorTexture":{"index":0},"metallicRoughnessTexture":{"index":2}},"normalTexture":{"index":1},"extensions":{"KHR_materials_ior":{"ior":1.4500000476837158},"KHR_materials_specular":{"specularColorTexture":{"index":3}}}}],"meshes":[{"name":"Mesh.001","extras":{"targetNames":["01__browDownLeft","00__browDownRight","02__browInnerUp","03__browOuterUpRight","04__browOuterUpLeft","07__cheekSquintRight","06__cheekSquintLeft","05__cheekPuff","09__eyeBlinkRight","08__eyeBlinkLeft","10__eyeLookdownLeft","11__eyeLookdownRight","13__eyeLookInRight","12__eyeLookInLeft","15__eyeLookOutRight","14__eyeLookOutLeft","17__eyeLookUpRight","16__eyeLookUpLeft","19__eyeSquintRight","18__eyeSquintLeft","21__eyeWideRight","20__eyeWideLeft","51__headRight","52__headTiltRight","53__headTiltLeft","54__headLeft","55__headUp","56__headDown","22__jawForward","25__jawRight","23__jawLeft","48__mouthUpperRight","34__mouthLowerDownRight","36__mouthPressRight","42__mouthShrugUpper","41__mouthShrugLower","40__mouthRollUpper","39__mouthRollLower","46__mouthStretchRight","27__mouthDimpleRight","30__mouthFrownRight","44__mouthSmileRight","38__mouthRight","37__mouthPucker","31__mouthFunnel","24__mouthOpen","49__noseSneerLeft","50__noseSneerRight","47__mouthUpperLeft","33__mouthLowerDownLeft","35__mouthPressLeft","45__mouthStretchLeft","28__mouthDimpleLeft","29__mouthFrownLeft","43__mouthSmileLeft","32__mouthLeft","26__mouthClosed","57__tongueOut"]},"primitives":[{"attributes":{"POSITION":1,"NORMAL":2,"TEXCOORD_0":3,"COLOR_0":4},"mode":4,"material":0,"indices":0,"targets":[{"POSITION":5,"NORMAL":6},{"POSITION":7,"NORMAL":8},{"POSITION":9,"NORMAL":10},{"POSITION":11,"NORMAL":12},{"POSITION":13,"NORMAL":14},{"POSITION":15,"NORMAL":16},{"POSITION":17,"NORMAL":18},{"POSITION":19,"NORMAL":20},{"POSITION":21,"NORMAL":22},{"POSITION":23,"NORMAL":24},{"POSITION":25,"NORMAL":26},{"POSITION":27,"NORMAL":28},{"POSITION":29,"NORMAL":30},{"POSITION":31,"NORMAL":32},{"POSITION":33,"NORMAL":34},{"POSITION":35,"NORMAL":36},{"POSITION":37,"NORMAL":38},{"POSITION":39,"NORMAL":40},{"POSITION":41,"NORMAL":42},{"POSITION":43,"NORMAL":44},{"POSITION":45,"NORMAL":46},{"POSITION":47,"NORMAL":48},{"POSITION":49,"NORMAL":50},{"POSITION":51,"NORMAL":52},{"POSITION":53,"NORMAL":54},{"POSITION":55,"NORMAL":56},{"POSITION":57,"NORMAL":58},{"POSITION":59,"NORMAL":60},{"POSITION":61,"NORMAL":62},{"POSITION":63,"NORMAL":64},{"POSITION":65,"NORMAL":66},{"POSITION":67,"NORMAL":68},{"POSITION":69,"NORMAL":70},{"POSITION":71,"NORMAL":72},{"POSITION":73,"NORMAL":74},{"POSITION":75,"NORMAL":76},{"POSITION":77,"NORMAL":78},{"POSITION":79,"NORMAL":80},{"POSITION":81,"NORMAL":82},{"POSITION":83,"NORMAL":84},{"POSITION":85,"NORMAL":86},{"POSITION":87,"NORMAL":88},{"POSITION":89,"NORMAL":90},{"POSITION":91,"NORMAL":92},{"POSITION":93,"NORMAL":94},{"POSITION":95,"NORMAL":96},{"POSITION":97,"NORMAL":98},{"POSITION":99,"NORMAL":100},{"POSITION":101,"NORMAL":102},{"POSITION":103,"NORMAL":104},{"POSITION":105,"NORMAL":106},{"POSITION":107,"NORMAL":108},{"POSITION":109,"NORMAL":110},{"POSITION":111,"NORMAL":112},{"POSITION":113,"NORMAL":114},{"POSITION":115,"NORMAL":116},{"POSITION":117,"NORMAL":118},{"POSITION":119,"NORMAL":120}]}],"weights":[0,0,0,0,0,0,0,0,0,0,0,0,0,0,0,0,0,0,0,0,0,0,0,0,0,0,0,0,0,0,0,0,0,0,0,0,0,0,0,0,0,0,0,0,0,0,0,0,0,0,0,0,0,0,0,0,0,0]}],"nodes":[{"name":"Man","translation":[0,0.024120024270047582,3.2407389902410545e-9],"rotation":[0.707106828689577,0,0,0.7071067336835151],"scale":[1.3837588191682357,1.3837587718041915,1.3837587718041915],"mesh":0}],"scenes":[{"name":"Scene","nodes":[0]}],"scene":0,"extensionsUsed":["KHR_materials_ior","KHR_materials_specular","KHR_mesh_quantization","EXT_meshopt_compression"],"extensionsRequired":["KHR_mesh_quantization","EXT_meshopt_compression"]}